<svg xmlns="http://www.w3.org/2000/svg" viewBox="0 0 64 64" id="mac"><path fill="#222" d="M24.69 62.05a10.17 10.17 0 0 1-3.58-.67c-4.55-1.71-6.74-6.57-8.5-10.47-.43-.95-.84-1.85-1.25-2.64C8.42 42.53 8 34 10.36 27.51c1.42-3.93 3.68-6.64 6.52-7.83 5.25-2.23 9.18-1.11 12.33-.21a13.89 13.89 0 0 0 3.65.74 2 2 0 0 1 0 4 17.28 17.28 0 0 1-4.75-.89c-2.81-.8-5.72-1.63-9.68 0-1.76.74-3.29 2.7-4.31 5.51-2 5.43-1.64 12.82.8 17.57.46.89.88 1.83 1.33 2.82 1.54 3.4 3.27 7.25 6.27 8.37 2.3.87 4 .21 6.07-.54a12.16 12.16 0 0 1 4.27-1 2 2 0 0 1 0 4 9.2 9.2 0 0 0-2.88.77 14.76 14.76 0 0 1-5.29 1.23Z"></path><path fill="#222" d="M41 62.05a14.76 14.76 0 0 1-5.29-1.21 9.2 9.2 0 0 0-2.88-.77 2 2 0 0 1 0-4 12.26 12.26 0 0 1 4.28 1c2 .76 3.77 1.41 6.07.54 3-1.12 4.73-5 6.26-8.37.45-1 .88-1.93 1.33-2.82.18-.36.36-.74.52-1.13A2 2 0 1 1 55 46.82c-.2.49-.42 1-.65 1.43-.42.81-.82 1.71-1.25 2.65-1.76 3.91-3.95 8.77-8.51 10.48a10.17 10.17 0 0 1-3.59.67zm11.13-34.74a2 2 0 0 1-1.71-1 7 7 0 0 0-3.13-3c-3.95-1.67-6.86-.84-9.68 0a17.65 17.65 0 0 1-4.75.88 2 2 0 0 1 0-4 14.32 14.32 0 0 0 3.66-.73c3.15-.9 7.07-2 12.33.2a10.88 10.88 0 0 1 5 4.6 2 2 0 0 1-1.71 3zm-20.3-8.68a2 2 0 0 1-2-2c-.06-8 4.75-13.87 12-14.67a2 2 0 0 1 .45 4c-5.17.57-8.48 4.76-8.43 10.66a2 2 0 0 1-2 2z"></path><path fill="#222" d="M37 17.19a2 2 0 0 1-1.12-3.66 9.84 9.84 0 0 0 4.17-9.33 2 2 0 1 1 4-.49 13.85 13.85 0 0 1-5.93 13.14 2 2 0 0 1-1.12.34zm16.17 30.87a2 2 0 0 1-1.17-.34 16 16 0 0 1-5.68-17.48 2 2 0 0 1 3.8 1.24c-1.61 4.95.84 10.68 4.14 12.93a2 2 0 0 1 .52 2.78 2 2 0 0 1-1.61.87z"></path></svg>
